<svg width="968" height="234" viewBox="0 0 968 234" fill="none" xmlns="http://www.w3.org/2000/svg">
<g opacity="0.6">
<path fill-rule="evenodd" clip-rule="evenodd" d="M661.056 139.986C747.687 157.559 841.275 162.563 897.389 229.238C963.484 307.772 1007.61 414.033 981.89 521.204C955.341 631.84 861.829 713.189 766.103 776.343C668.338 840.841 559.794 883.149 449.703 872.304C325.967 860.115 187.203 826.689 136.229 714.296C86.5697 604.8 161.428 473.114 215.683 356.307C258.782 263.515 316.839 174.013 407.669 129.897C490.214 89.8039 576.012 122.734 661.056 139.986Z" stroke="#0B7077"/>
<path fill-rule="evenodd" clip-rule="evenodd" d="M724.868 95.4271C837.614 120.077 896.347 236.495 939.635 344.016C977.332 437.651 978.214 542.539 945.949 644.567C914.658 743.517 859.741 843.941 767.128 889.521C680.631 932.09 595.435 868.714 503.614 862.263C382.022 853.721 230.344 935.21 151.49 846.273C70.7751 755.238 112.041 598.322 160.918 475.748C204.882 365.492 300.568 292.113 398.905 225.796C501.306 156.738 611.957 70.7411 724.868 95.4271Z" stroke="#0B7077"/>
<path fill-rule="evenodd" clip-rule="evenodd" d="M741.354 120.927C851.693 119.005 963.2 185.388 999.513 288.331C1033.8 385.533 944.074 485.88 906.239 588.347C873.552 676.869 868.368 776.581 796.37 838.488C714.484 908.897 603.057 960.471 507.449 931.244C414.955 902.968 402.152 783.329 350.139 702.074C291.828 610.977 149.745 543.518 189.2 434.064C229.124 323.308 394.091 354.961 496.122 297.097C586.55 245.814 641.782 122.661 741.354 120.927Z" stroke="#0B7077"/>
<path fill-rule="evenodd" clip-rule="evenodd" d="M692.264 106.246C796.545 121.87 871.405 211.579 909.982 309.733C944.561 397.712 901.041 495.124 883.482 592.77C862.017 712.139 896.87 860.949 797.725 934.014C697.994 1007.51 575.525 926.846 462.22 903.216C347.714 879.336 198.884 900.584 144.134 797.707C89.5443 695.132 167.759 563.314 221.156 450.253C263.338 360.939 330.355 292.959 409.979 234.817C497.957 170.574 591.17 91.0985 692.264 106.246Z" stroke="#0B7077"/>
<path fill-rule="evenodd" clip-rule="evenodd" d="M667.88 150.617C746.023 178.08 839.815 172.57 889.792 238.206C945.327 311.14 949.223 410.331 939.248 507.009C926.221 633.267 925.242 777.944 825.49 861.421C719.179 950.388 570.226 952.847 445.8 919.952C326.492 888.41 227.543 805.223 179.627 690.671C135.726 585.719 170.561 464.554 207.184 349.498C242.337 239.06 275.198 104.759 380.608 59.2535C482.372 15.3223 569.493 116.039 667.88 150.617Z" stroke="#0B7077"/>
<path fill-rule="evenodd" clip-rule="evenodd" d="M647.138 205.311C755.959 224.26 912.449 173.675 957.212 274.495C1002.46 376.41 860.589 478.194 817.544 589.121C782.388 679.717 812.869 801.495 731.902 855.112C650.766 908.841 559.841 835.304 469.883 819.344C373.773 802.292 246.196 842.092 195.306 759.911C144.186 677.358 225.473 567.755 251.968 467.436C279.682 362.502 260.332 229.389 351.372 168.999C442.659 108.447 545.798 187.665 647.138 205.311Z" stroke="#0B7077"/>
<path fill-rule="evenodd" clip-rule="evenodd" d="M663.395 167.675C741.841 189.094 798.119 244.512 847.432 308.369C908.448 387.381 984.485 465.207 974.529 570.574C963.071 691.827 902.824 826.656 793.154 882.768C687.251 936.952 580.304 858.776 473.24 827.052C378.712 799.041 272.539 791.189 215.288 711.538C152.706 624.469 123.166 504.379 163.286 395.823C201.657 292 309.019 233.962 408.577 188.544C491.706 150.621 580.261 144.977 663.395 167.675Z" stroke="#0B7077"/>
<path fill-rule="evenodd" clip-rule="evenodd" d="M659.317 151.974C751.243 173.507 805.604 257.097 851.972 338.945C898.882 421.751 937.565 511.804 919.378 611.029C899.239 720.907 851.196 844.262 750.377 893.241C653.469 940.32 556.33 870.371 462.782 832.848C390.1 803.694 324.179 767.939 278.859 704.109C227.096 631.204 174.307 548.426 194.552 455.066C215.71 357.495 297.504 283.888 381.92 228.836C467.486 173.036 566.258 130.175 659.317 151.974Z" stroke="#0B7077"/>
</g>
</svg>
