<svg width="1023" height="193" viewBox="0 0 1023 193" fill="none" xmlns="http://www.w3.org/2000/svg">
<g opacity="0.6">
<path fill-rule="evenodd" clip-rule="evenodd" d="M554.499 -629.171C641.162 -611.693 734.47 -605.827 791.843 -543.031C859.421 -469.065 905.741 -369.571 882.534 -270.13C858.575 -167.474 767.278 -92.9464 673.368 -35.3875C577.458 23.3972 470.317 61.3839 360.444 49.8675C236.954 36.9237 98.0211 4.0142 44.7422 -101.278C-7.16326 -203.855 64.4307 -325.485 115.84 -433.529C156.679 -519.359 212.487 -601.933 301.948 -641.832C383.249 -678.093 469.425 -646.328 554.499 -629.171Z" stroke="#0B7077"/>
<path fill-rule="evenodd" clip-rule="evenodd" d="M617.031 -669.789C729.854 -645.376 790.934 -536.23 836.435 -435.568C876.06 -347.907 879.275 -250.247 849.419 -155.681C820.463 -63.9675 768.014 28.8108 676.804 70.0411C591.619 108.548 505.368 48.4386 413.788 41.2402C292.516 31.7079 143.289 105.601 62.7841 21.778C-19.62 -64.0225 17.9774 -209.571 63.9183 -323.049C105.242 -425.123 198.892 -492.193 295.34 -552.655C395.773 -615.616 504.044 -694.238 617.031 -669.789Z" stroke="#0B7077"/>
<path fill-rule="evenodd" clip-rule="evenodd" d="M634.034 -645.878C743.868 -646.243 856.395 -583.004 894.864 -486.7C931.187 -395.765 844.085 -303.503 808.704 -208.598C778.138 -126.608 775.211 -33.847 704.901 22.858C624.937 87.3496 515.132 133.927 419.27 105.483C326.529 77.9657 311.099 -33.5789 257.483 -109.897C197.374 -195.456 54.3737 -260.092 91.2106 -361.481C128.486 -464.076 293.471 -432.48 393.778 -485.033C482.677 -531.609 534.919 -645.548 634.034 -645.878Z" stroke="#0B7077"/>
<path fill-rule="evenodd" clip-rule="evenodd" d="M584.821 -660.179C689.015 -644.288 765.572 -559.806 806.188 -467.93C842.593 -385.578 801.439 -295.452 786.142 -204.774C767.442 -93.9218 805.484 45.0653 708.392 111.807C610.725 178.943 486.962 102.267 373.602 78.8066C259.04 55.0976 111.31 72.9588 54.4835 -23.5222C-2.17656 -119.721 72.7567 -241.43 123.396 -345.997C163.4 -428.601 228.612 -491.024 306.6 -544.125C392.77 -602.798 483.811 -675.585 584.821 -660.179Z" stroke="#0B7077"/>
<path fill-rule="evenodd" clip-rule="evenodd" d="M561.533 -619.186C639.965 -592.61 733.24 -596.53 784.479 -534.78C841.416 -466.164 847.519 -373.77 839.752 -283.895C829.609 -166.52 831.877 -31.8439 734.414 44.5839C630.542 126.037 482.267 126.405 357.625 94.1754C238.11 63.2715 137.711 -15.449 87.4284 -122.712C41.3598 -220.985 73.3336 -333.337 107.224 -439.977C139.754 -542.338 169.468 -666.944 273.417 -707.948C373.771 -747.534 462.784 -652.646 561.533 -619.186Z" stroke="#0B7077"/>
<path fill-rule="evenodd" clip-rule="evenodd" d="M542.104 -568.535C650.894 -549.49 805.595 -594.563 852.43 -500.126C899.773 -404.662 760.777 -311.736 720.398 -209.021C687.42 -125.133 720.502 -11.3678 641.076 37.5029C561.484 86.4759 469.291 16.8423 379.353 0.823433C283.263 -16.291 157.113 19.1157 104.594 -58.0493C51.8378 -135.563 130.328 -236.551 154.464 -329.603C179.71 -426.936 157.458 -551.109 246.763 -606.155C336.311 -661.35 440.793 -586.27 542.104 -568.535Z" stroke="#0B7077"/>
<path fill-rule="evenodd" clip-rule="evenodd" d="M557.45 -603.362C636.047 -582.41 693.332 -530.092 743.868 -470.007C806.4 -395.662 883.863 -322.227 876.309 -224.263C867.617 -111.528 810.644 13.2167 702.691 64.0396C598.446 113.117 490.195 38.958 382.869 8.04229C288.108 -19.2538 182.205 -27.9336 123.408 -102.825C59.1372 -184.691 27.0293 -296.872 64.5485 -397.417C100.432 -493.578 206.043 -546.224 304.166 -587.222C386.098 -621.455 474.155 -625.567 557.45 -603.362Z" stroke="#0B7077"/>
<path fill-rule="evenodd" clip-rule="evenodd" d="M553.036 -618.033C645.06 -596.8 701.067 -518.279 749.075 -441.482C797.645 -363.788 838.184 -279.452 822.297 -187.312C804.705 -85.2783 759.627 28.9411 660.328 73.2381C564.881 115.817 466.582 49.4434 372.584 13.3033C299.553 -14.7756 233.107 -48.9128 186.547 -108.921C133.366 -177.461 78.9433 -255.205 97.0111 -341.86C115.894 -432.422 195.695 -499.893 278.525 -550.055C362.481 -600.9 459.879 -639.527 553.036 -618.033Z" stroke="#0B7077"/>
</g>
</svg>
