<svg width="1018" height="276" viewBox="0 0 1018 276" fill="none" xmlns="http://www.w3.org/2000/svg">
<g opacity="0.6">
<path fill-rule="evenodd" clip-rule="evenodd" d="M549.499 -546.171C636.162 -528.693 729.47 -522.827 786.843 -460.031C854.421 -386.065 900.741 -286.571 877.534 -187.13C853.575 -84.474 762.278 -9.9464 668.368 47.6125C572.458 106.397 465.317 144.384 355.444 132.867C231.954 119.924 93.0211 87.0142 39.7422 -18.2776C-12.1633 -120.855 59.4307 -242.485 110.84 -350.529C151.679 -436.359 207.487 -518.933 296.948 -558.832C378.249 -595.093 464.425 -563.328 549.499 -546.171Z" stroke="#D2E6E4"/>
<path fill-rule="evenodd" clip-rule="evenodd" d="M612.031 -586.789C724.854 -562.376 785.934 -453.23 831.435 -352.568C871.06 -264.907 874.275 -167.247 844.419 -72.6813C815.463 19.0325 763.014 111.811 671.804 153.041C586.619 191.548 500.368 131.439 408.788 124.24C287.516 114.708 138.289 188.601 57.7841 104.778C-24.62 18.9775 12.9774 -126.571 58.9183 -240.049C100.242 -342.123 193.892 -409.193 290.34 -469.655C390.773 -532.616 499.044 -611.238 612.031 -586.789Z" stroke="#D2E6E4"/>
<path fill-rule="evenodd" clip-rule="evenodd" d="M629.034 -562.878C738.868 -563.243 851.395 -500.004 889.864 -403.7C926.187 -312.765 839.085 -220.503 803.704 -125.598C773.138 -43.6082 770.211 49.153 699.901 105.858C619.937 170.35 510.132 216.927 414.27 188.483C321.529 160.966 306.099 49.4211 252.483 -26.8965C192.374 -112.456 49.3737 -177.092 86.2106 -278.481C123.486 -381.076 288.471 -349.48 388.778 -402.033C477.677 -448.609 529.919 -562.548 629.034 -562.878Z" stroke="#D2E6E4"/>
<path fill-rule="evenodd" clip-rule="evenodd" d="M579.821 -577.179C684.015 -561.288 760.572 -476.806 801.188 -384.93C837.593 -302.578 796.439 -212.452 781.142 -121.774C762.442 -10.9218 800.484 128.065 703.392 194.807C605.725 261.943 481.962 185.267 368.602 161.807C254.04 138.098 106.31 155.959 49.4835 59.4778C-7.17656 -36.7206 67.7567 -158.43 118.396 -262.997C158.4 -345.601 223.612 -408.024 301.6 -461.125C387.77 -519.798 478.811 -592.585 579.821 -577.179Z" stroke="#D2E6E4"/>
<path fill-rule="evenodd" clip-rule="evenodd" d="M556.533 -536.186C634.965 -509.61 728.24 -513.53 779.479 -451.78C836.416 -383.164 842.519 -290.77 834.752 -200.895C824.609 -83.5204 826.877 51.1561 729.414 127.584C625.542 209.037 477.267 209.405 352.625 177.175C233.11 146.272 132.711 67.551 82.4284 -39.7121C36.3598 -137.985 68.3336 -250.337 102.224 -356.977C134.754 -459.338 164.468 -583.944 268.417 -624.948C368.771 -664.534 457.784 -569.646 556.533 -536.186Z" stroke="#D2E6E4"/>
<path fill-rule="evenodd" clip-rule="evenodd" d="M537.104 -485.535C645.894 -466.49 800.595 -511.563 847.43 -417.126C894.773 -321.662 755.777 -228.736 715.398 -126.021C682.42 -42.1331 715.502 71.6322 636.076 120.503C556.484 169.476 464.291 99.8423 374.353 83.8234C278.263 66.709 152.113 102.116 99.5938 24.9507C46.8378 -52.563 125.328 -153.551 149.464 -246.603C174.71 -343.936 152.458 -468.109 241.763 -523.155C331.311 -578.35 435.793 -503.27 537.104 -485.535Z" stroke="#D2E6E4"/>
<path fill-rule="evenodd" clip-rule="evenodd" d="M552.45 -520.362C631.047 -499.41 688.332 -447.092 738.868 -387.007C801.4 -312.662 878.863 -239.227 871.309 -141.263C862.617 -28.5281 805.644 96.2167 697.691 147.04C593.446 196.117 485.195 121.958 377.869 91.0423C283.108 63.7462 177.205 55.0664 118.408 -19.8253C54.1372 -101.691 22.0293 -213.872 59.5485 -314.417C95.4321 -410.578 201.043 -463.224 299.166 -504.222C381.098 -538.455 469.155 -542.567 552.45 -520.362Z" stroke="#D2E6E4"/>
<path fill-rule="evenodd" clip-rule="evenodd" d="M548.036 -535.033C640.06 -513.8 696.067 -435.279 744.075 -358.482C792.645 -280.788 833.184 -196.452 817.297 -104.312C799.705 -2.27832 754.627 111.941 655.328 156.238C559.881 198.817 461.582 132.443 367.584 96.3033C294.553 68.2244 228.107 34.0872 181.547 -25.9205C128.366 -94.461 73.9433 -172.205 92.0111 -258.86C110.894 -349.422 190.695 -416.893 273.525 -467.055C357.481 -517.9 454.879 -556.527 548.036 -535.033Z" stroke="#D2E6E4"/>
</g>
</svg>
