<svg width="1023" height="247" viewBox="0 0 1023 247" fill="none" xmlns="http://www.w3.org/2000/svg">
<g opacity="0.6">
<path fill-rule="evenodd" clip-rule="evenodd" d="M554.499 -575.171C641.162 -557.693 734.47 -551.827 791.843 -489.031C859.421 -415.065 905.741 -315.571 882.534 -216.13C858.575 -113.474 767.278 -38.9464 673.368 18.6125C577.458 77.3972 470.317 115.384 360.444 103.867C236.954 90.9237 98.0211 58.0142 44.7422 -47.2776C-7.16326 -149.855 64.4307 -271.485 115.84 -379.529C156.679 -465.359 212.487 -547.933 301.948 -587.832C383.249 -624.093 469.425 -592.328 554.499 -575.171Z" stroke="#0B7077"/>
<path fill-rule="evenodd" clip-rule="evenodd" d="M617.031 -615.789C729.854 -591.376 790.934 -482.23 836.435 -381.568C876.06 -293.907 879.275 -196.247 849.419 -101.681C820.463 -9.96754 768.014 82.8108 676.804 124.041C591.619 162.548 505.368 102.439 413.788 95.2402C292.516 85.7079 143.289 159.601 62.7841 75.778C-19.62 -10.0225 17.9774 -155.571 63.9183 -269.049C105.242 -371.123 198.892 -438.193 295.34 -498.655C395.773 -561.616 504.044 -640.238 617.031 -615.789Z" stroke="#0B7077"/>
<path fill-rule="evenodd" clip-rule="evenodd" d="M634.034 -591.878C743.868 -592.243 856.395 -529.004 894.864 -432.7C931.187 -341.765 844.085 -249.503 808.704 -154.598C778.138 -72.6082 775.211 20.153 704.901 76.858C624.937 141.35 515.132 187.927 419.27 159.483C326.529 131.966 311.099 20.4211 257.483 -55.8965C197.374 -141.456 54.3737 -206.092 91.2106 -307.481C128.486 -410.076 293.471 -378.48 393.778 -431.033C482.677 -477.609 534.919 -591.548 634.034 -591.878Z" stroke="#0B7077"/>
<path fill-rule="evenodd" clip-rule="evenodd" d="M584.821 -606.179C689.015 -590.288 765.572 -505.806 806.188 -413.93C842.593 -331.578 801.439 -241.452 786.142 -150.774C767.442 -39.9218 805.484 99.0653 708.392 165.807C610.725 232.943 486.962 156.267 373.602 132.807C259.04 109.098 111.31 126.959 54.4835 30.4778C-2.17656 -65.7206 72.7567 -187.43 123.396 -291.997C163.4 -374.601 228.612 -437.024 306.6 -490.125C392.77 -548.798 483.811 -621.585 584.821 -606.179Z" stroke="#0B7077"/>
<path fill-rule="evenodd" clip-rule="evenodd" d="M561.533 -565.186C639.965 -538.61 733.24 -542.53 784.479 -480.78C841.416 -412.164 847.519 -319.77 839.752 -229.895C829.609 -112.52 831.877 22.1561 734.414 98.5839C630.542 180.037 482.267 180.405 357.625 148.175C238.11 117.272 137.711 38.551 87.4284 -68.7121C41.3598 -166.985 73.3336 -279.337 107.224 -385.977C139.754 -488.338 169.468 -612.944 273.417 -653.948C373.771 -693.534 462.784 -598.646 561.533 -565.186Z" stroke="#0B7077"/>
<path fill-rule="evenodd" clip-rule="evenodd" d="M542.104 -514.535C650.894 -495.49 805.595 -540.563 852.43 -446.126C899.773 -350.662 760.777 -257.736 720.398 -155.021C687.42 -71.1331 720.502 42.6322 641.076 91.5029C561.484 140.476 469.291 70.8423 379.353 54.8234C283.263 37.709 157.113 73.1157 104.594 -4.04929C51.8378 -81.563 130.328 -182.551 154.464 -275.603C179.71 -372.936 157.458 -497.109 246.763 -552.155C336.311 -607.35 440.793 -532.27 542.104 -514.535Z" stroke="#0B7077"/>
<path fill-rule="evenodd" clip-rule="evenodd" d="M557.45 -549.362C636.047 -528.41 693.332 -476.092 743.868 -416.007C806.4 -341.662 883.863 -268.227 876.309 -170.263C867.617 -57.5281 810.644 67.2167 702.691 118.04C598.446 167.117 490.195 92.958 382.869 62.0423C288.108 34.7462 182.205 26.0664 123.408 -48.8253C59.1372 -130.691 27.0293 -242.872 64.5485 -343.417C100.432 -439.578 206.043 -492.224 304.166 -533.222C386.098 -567.455 474.155 -571.567 557.45 -549.362Z" stroke="#0B7077"/>
<path fill-rule="evenodd" clip-rule="evenodd" d="M553.036 -564.033C645.06 -542.8 701.067 -464.279 749.075 -387.482C797.645 -309.788 838.184 -225.452 822.297 -133.312C804.705 -31.2783 759.627 82.9411 660.328 127.238C564.881 169.817 466.582 103.443 372.584 67.3033C299.553 39.2244 233.107 5.0872 186.547 -54.9205C133.366 -123.461 78.9433 -201.205 97.0111 -287.86C115.894 -378.422 195.695 -445.893 278.525 -496.055C362.481 -546.9 459.879 -585.527 553.036 -564.033Z" stroke="#0B7077"/>
</g>
</svg>
